<svg width="148" height="42" viewBox="0 0 148 42" fill="none" xmlns="http://www.w3.org/2000/svg">
<path d="M4.34239 41.4527H4.33103L4.31968 41.4532C2.3207 41.5441 0.646397 39.9061 0.547485 37.8556V37.7626V4.24137C0.547485 2.21293 2.20919 0.551216 4.23763 0.551216H4.34239H143.56C145.605 0.551216 147.355 2.22877 147.355 4.24137V37.7509C147.257 39.7888 145.588 41.4527 143.455 41.4527H4.34239Z" fill="black" stroke="white"/>
<path d="M32.4164 20.7925C32.4164 17.2309 35.3495 15.5548 35.4543 15.45C34.302 13.6692 32.3117 12.6217 30.2166 12.6217C28.1215 12.4122 25.9217 13.8787 24.8741 13.8787C23.7218 13.8787 22.0458 12.6217 20.1602 12.6217C17.7509 12.6217 15.5511 13.9835 14.3988 16.1833C11.8847 20.4782 13.7702 26.8682 16.1796 30.3251C17.3319 32.0011 18.7984 33.8867 20.5792 33.8867C22.36 33.7819 23.0933 32.7344 25.1884 32.7344C27.3882 32.7344 28.0167 33.8867 29.7976 33.7819C31.6831 33.7819 32.9402 32.1059 34.0925 30.3251C35.4543 28.3348 36.0828 26.4492 36.0828 26.3444C36.0828 26.3444 32.4164 24.9826 32.4164 20.7925ZM28.8548 10.3171C29.9023 9.06007 30.4261 7.48876 30.3213 5.8127C28.9595 5.91746 27.1787 6.75549 26.1312 7.90778C25.1884 8.95531 24.4551 10.6314 24.6646 12.2027C26.2359 12.4122 27.8072 11.4694 28.8548 10.3171Z" fill="white"/>
<path d="M58.3954 33.6769H55.8813L54.5195 29.382H49.7008L48.339 33.6769H45.9297L50.7484 19.0114H53.6815L58.3954 33.6769ZM54.1005 27.4964L52.8434 23.7253L52.1102 21.0017L51.3769 23.7253L50.1198 27.4964H54.1005ZM70.6516 28.2297C70.7563 29.801 70.2326 31.3723 69.185 32.5246C68.347 33.4674 67.1947 33.8864 65.9377 33.8864C64.5759 33.8864 63.5283 33.3626 62.8998 32.4199V37.9718H60.4905V26.5536L60.3857 23.0968H62.4808L62.5855 24.7728C63.3188 23.5158 64.6806 22.7825 66.1472 22.8873C67.4042 22.8873 68.4517 23.411 69.2898 24.3538C70.2326 25.4014 70.7563 26.7632 70.6516 28.2297ZM68.2422 28.3345C68.2422 27.2869 68.0327 26.4489 67.509 25.8204C66.9852 25.0871 66.3567 24.7728 65.4139 24.7728C64.7854 24.7728 64.2616 24.9823 63.8426 25.2966C63.3188 25.7156 63.1093 26.1346 62.8998 26.7632L62.795 27.4964V29.2772C62.795 30.0105 63.0045 30.639 63.5283 31.2676C64.0521 31.7913 64.5759 32.1056 65.4139 32.1056C66.2519 32.1056 66.9852 31.7913 67.509 31.0581C68.0327 30.22 68.2422 29.2772 68.2422 28.3345ZM82.803 28.2297C82.9078 29.801 82.384 31.3723 81.3364 32.5246C80.4984 33.4674 79.3461 33.8864 78.0891 33.8864C76.7273 33.8864 75.6797 33.3626 75.0512 32.4199V37.9718H72.6419V26.5536L72.5371 23.0968H74.6322L74.8417 24.7728C75.575 23.5158 76.9368 22.7825 78.4033 22.8873C79.6604 22.8873 80.7079 23.411 81.546 24.3538C82.384 25.2966 82.803 26.6584 82.803 28.2297ZM80.3937 28.3345C80.3937 27.2869 80.1842 26.4489 79.6604 25.8204C79.1366 25.0871 78.5081 24.7728 77.5653 24.7728C76.9368 24.7728 76.413 24.9823 75.994 25.2966C75.4702 25.7156 75.2607 26.1346 75.0512 26.7632L74.9465 27.4964V29.2772C74.9465 30.0105 75.156 30.639 75.6797 31.2676C76.2035 31.7913 76.7273 32.1056 77.5653 32.1056C78.4033 32.1056 79.1366 31.7913 79.6604 31.0581C80.1842 30.3248 80.3937 29.4868 80.3937 28.3345ZM96.5257 29.4868C96.5257 30.7438 96.1067 31.7913 95.2687 32.5246C94.3259 33.3626 92.9641 33.7817 91.2881 33.7817C89.7167 33.7817 88.4597 33.4674 87.5169 32.8389L88.0407 30.8486C89.0882 31.4771 90.2405 31.7913 91.4976 31.7913C92.3356 31.7913 93.0689 31.5818 93.5926 31.1628C94.1164 30.7438 94.3259 30.22 94.3259 29.5915C94.3259 28.963 94.1164 28.544 93.6974 28.125C93.2784 27.7059 92.6499 27.3917 91.7071 26.9727C89.0882 26.0299 87.8312 24.6681 87.8312 22.7825C87.8312 21.6302 88.2502 20.5827 89.193 19.8494C90.1358 19.1161 91.2881 18.6971 92.7546 18.6971C94.1164 18.6971 95.1639 18.9066 96.1067 19.4304L95.4782 21.316C94.6402 20.8969 93.5926 20.6874 92.6499 20.6874C91.8118 20.6874 91.1833 20.8969 90.6595 21.316C90.2405 21.6302 90.031 22.154 90.031 22.6778C90.031 23.3063 90.2405 23.7253 90.6595 24.1443L92.7546 25.2966C93.8021 25.7156 94.7449 26.2394 95.583 27.0774C96.2115 27.7059 96.5257 28.544 96.5257 29.4868ZM104.278 24.8776H101.659V30.0105C101.659 31.2676 102.078 32.0008 103.02 32.0008L104.068 31.8961L104.173 33.6769C103.754 33.8864 103.125 33.8864 102.287 33.8864C101.344 33.8864 100.611 33.5722 100.087 33.0484C99.5636 32.5246 99.2493 31.5818 99.2493 30.22V24.8776H97.8875V23.0968H99.4588V21.2112L101.763 20.4779V23.0968H104.382V24.8776H104.278ZM116.01 28.2297C116.01 29.801 115.591 31.1628 114.648 32.2104C113.705 33.2579 112.344 33.7817 110.772 33.7817C109.201 33.7817 107.944 33.2579 107.001 32.2104C106.058 31.1628 105.639 29.9058 105.639 28.3345C105.639 26.6584 106.163 25.4014 107.106 24.3538C108.049 23.3063 109.306 22.7825 110.982 22.7825C112.553 22.7825 113.81 23.3063 114.753 24.3538C115.591 25.4014 116.01 26.6584 116.01 28.2297ZM113.601 28.3345C113.601 27.3917 113.391 26.5537 112.972 25.8204C112.448 24.9823 111.82 24.5633 110.877 24.5633C109.934 24.5633 109.201 24.9823 108.677 25.8204C108.258 26.5537 108.049 27.3917 108.049 28.3345C108.049 29.2772 108.258 30.1153 108.677 30.8486C109.201 31.6866 109.934 32.1056 110.772 32.1056C111.715 32.1056 112.344 31.6866 112.867 30.8486C113.391 30.22 113.601 29.2772 113.601 28.3345ZM123.762 25.1919L123.028 25.0871C122.295 25.0871 121.562 25.4014 121.143 26.0299C120.724 26.5536 120.514 27.2869 120.514 28.125V33.6769H118.105V26.4489L118 23.0968H120.095L120.2 25.0871H120.305C120.514 24.4586 120.933 23.8301 121.457 23.411C121.981 22.992 122.505 22.8873 123.133 22.8873H123.762V25.1919ZM134.342 27.9154L134.237 28.963H127.114C127.114 29.9058 127.428 30.7438 128.161 31.3723C128.79 31.8961 129.523 32.1056 130.466 32.1056C131.513 32.1056 132.456 31.8961 133.294 31.5818L133.713 33.2579C132.561 33.6769 131.409 33.8864 130.152 33.8864C128.685 33.9912 127.323 33.4674 126.276 32.4199C125.333 31.3723 124.809 30.0105 124.914 28.544C124.914 26.9727 125.333 25.6109 126.276 24.5633C127.114 23.411 128.476 22.8873 129.942 22.8873C131.513 22.8873 132.666 23.411 133.399 24.5633C134.028 25.4014 134.342 26.5537 134.342 27.9154ZM132.037 27.2869C132.037 26.6584 131.933 26.0299 131.618 25.5061C131.199 24.8776 130.466 24.5633 129.733 24.5633C128.999 24.5633 128.371 24.8776 127.847 25.5061C127.428 26.0299 127.219 26.6584 127.114 27.2869H132.037Z" fill="white"/>
<path d="M53.3671 10.0026C53.3671 11.2596 52.9481 12.3072 52.2148 12.9357C51.4816 13.5642 50.434 13.8785 49.0722 13.8785L47.3962 13.7737V6.65046L49.3865 6.5457C50.6435 6.5457 51.5863 6.85996 52.2148 7.38373C53.0529 8.01225 53.3671 8.85028 53.3671 10.0026ZM52.1101 10.0026C52.1101 9.16455 51.9006 8.53602 51.4816 8.11701C51.0626 7.69799 50.3293 7.48849 49.4913 7.48849L48.5485 7.59324V12.9357H49.3865C50.2245 12.9357 50.9578 12.7262 51.4816 12.2024C51.9006 11.6786 52.1101 10.9454 52.1101 10.0026ZM59.8619 11.1549C59.8619 11.9929 59.6524 12.6214 59.1286 13.1452C58.6048 13.669 57.9763 13.9832 57.243 13.9832C56.5098 13.9832 55.8812 13.7737 55.4622 13.2499C54.9384 12.6214 54.7289 11.9929 54.7289 11.2596C54.7289 10.4216 54.9384 9.79307 55.4622 9.2693C55.8812 8.74553 56.5098 8.53602 57.3478 8.53602C58.0811 8.53602 58.7096 8.74553 59.2333 9.2693C59.6524 9.68831 59.8619 10.3168 59.8619 11.1549ZM58.6048 11.1549C58.6048 10.6311 58.5001 10.3168 58.2906 9.89782C58.0811 9.47881 57.662 9.2693 57.243 9.2693C56.824 9.2693 56.405 9.47881 56.1955 9.89782L55.8812 11.1549C55.8812 11.6786 55.986 11.9929 56.1955 12.4119C56.405 12.8309 56.824 13.0404 57.243 13.0404C57.662 13.0404 58.0811 12.8309 58.2906 12.4119C58.5001 12.0977 58.6048 11.6786 58.6048 11.1549ZM68.5564 8.64078L66.8804 13.7737H65.8328L65.2043 11.5739L64.7853 9.89782L64.3663 11.5739L63.633 13.7737H62.5855L61.0142 8.64078H62.1665L62.795 11.1549L63.1092 12.8309L63.5283 11.1549L64.2615 8.64078H65.2043L65.9376 11.0501L66.3566 12.7262L66.6709 11.0501L67.2994 8.64078H68.5564ZM74.5274 13.7737H73.3751V10.8406C73.3751 9.89782 73.0608 9.47881 72.3276 9.47881C72.0133 9.47881 71.699 9.58356 71.4895 9.89782C71.28 10.1073 71.1753 10.4216 71.1753 10.7359V13.7737H70.023V10.1073V8.64078H71.0705L71.1753 9.47881L71.8038 8.85028C72.1181 8.64078 72.4323 8.53602 72.8513 8.53602C73.3751 8.53602 73.7941 8.64078 74.1084 8.95504C74.5274 9.37405 74.7369 9.89782 74.7369 10.6311V13.7737H74.5274ZM77.7748 13.7737H76.6225V6.23144H77.7748V13.7737ZM84.5838 11.1549C84.5838 11.9929 84.3742 12.6214 83.8505 13.1452C83.3267 13.669 82.6982 13.9832 81.9649 13.9832C81.2316 13.9832 80.6031 13.7737 80.1841 13.2499C79.7651 12.7262 79.4508 12.0977 79.4508 11.3644C79.4508 10.5263 79.6603 9.89782 80.1841 9.37405C80.6031 8.85028 81.3364 8.64078 82.0697 8.64078C82.8029 8.64078 83.4315 8.85028 83.9552 9.37405C84.3742 9.68831 84.5838 10.3168 84.5838 11.1549ZM83.4315 11.1549C83.4315 10.6311 83.3267 10.3168 83.1172 9.89782C82.9077 9.47881 82.4887 9.2693 82.0697 9.2693C81.6507 9.2693 81.2316 9.47881 81.0221 9.89782C80.8126 10.2121 80.7079 10.6311 80.7079 11.1549C80.7079 11.6786 80.8126 11.9929 81.0221 12.4119C81.2316 12.8309 81.6507 13.0404 82.0697 13.0404C82.4887 13.0404 82.9077 12.8309 83.1172 12.4119C83.3267 12.0977 83.4315 11.6786 83.4315 11.1549ZM90.2405 13.7737H89.1929L89.0882 13.1452C88.7739 13.669 88.2501 13.8785 87.5169 13.8785C86.9931 13.8785 86.5741 13.7737 86.3646 13.4594C86.0503 13.1452 85.9456 12.8309 85.9456 12.4119C85.9456 11.7834 86.2598 11.2596 86.7836 10.9454C87.4121 10.5263 88.2501 10.4216 88.9834 10.4216V10.3168C88.9834 9.58356 88.6692 9.2693 87.9359 9.2693C87.4121 9.2693 86.9931 9.37405 86.5741 9.68831L86.3646 8.95504C86.8883 8.64078 87.5169 8.53602 88.1454 8.53602C89.5072 8.53602 90.2405 9.2693 90.2405 10.6311V12.5167V13.7737ZM88.9834 11.9929V11.1549C87.7264 11.1549 87.0978 11.4691 87.0978 12.2024L87.3074 12.8309L87.9359 13.0404L88.6691 12.8309L89.0882 12.2024L88.9834 11.9929ZM96.8399 13.7737H95.7924L95.6877 12.9357C95.3734 13.5642 94.8496 13.8785 94.0116 13.8785C93.3831 13.8785 92.8593 13.669 92.4403 13.1452C92.0213 12.6214 91.8118 11.9929 91.8118 11.2596C91.8118 10.4216 92.0213 9.79307 92.4403 9.2693C92.8593 8.74553 93.3831 8.53602 94.0116 8.53602C94.7449 8.53602 95.1639 8.74553 95.4781 9.2693V6.23144H96.6304V12.4119L96.8399 13.7737ZM95.5829 11.5739V10.7359V10.4216L95.1639 9.68831C94.9544 9.47881 94.7449 9.37405 94.4306 9.37405C94.0116 9.37405 93.6973 9.58356 93.3831 9.89782C93.1736 10.2121 92.9641 10.6311 92.9641 11.2596C92.9641 11.7834 93.0688 12.2024 93.2783 12.5167C93.4878 12.8309 93.9068 13.0404 94.3259 13.0404C94.7449 13.0404 95.0591 12.9357 95.2686 12.6214C95.4781 12.3072 95.5829 11.9929 95.5829 11.5739ZM106.792 11.1549C106.792 11.9929 106.582 12.6214 106.058 13.1452C105.534 13.669 104.906 13.9832 104.173 13.9832C103.439 13.9832 102.811 13.7737 102.392 13.2499C101.973 12.7262 101.659 12.0977 101.659 11.3644C101.659 10.5263 101.868 9.89782 102.392 9.37405C102.811 8.74553 103.439 8.53602 104.277 8.53602C105.011 8.53602 105.639 8.74553 106.163 9.2693C106.477 9.68831 106.792 10.3168 106.792 11.1549ZM105.534 11.1549C105.534 10.6311 105.43 10.3168 105.22 9.89782C105.011 9.47881 104.592 9.2693 104.173 9.2693C103.754 9.2693 103.335 9.47881 103.125 9.89782C102.916 10.2121 102.811 10.6311 102.811 11.1549C102.811 11.6786 102.916 11.9929 103.125 12.4119C103.335 12.8309 103.754 13.0404 104.173 13.0404C104.592 13.0404 105.011 12.8309 105.22 12.4119C105.43 12.0977 105.534 11.6786 105.534 11.1549ZM112.972 13.7737H111.82V10.8406C111.82 9.89782 111.505 9.47881 110.772 9.47881C110.458 9.47881 110.144 9.58356 109.934 9.89782C109.725 10.1073 109.62 10.4216 109.62 10.7359V13.7737H108.468V10.1073V8.64078H109.515V9.37405L110.144 8.74553C110.458 8.53602 110.772 8.43127 111.191 8.43127C111.715 8.43127 112.134 8.53602 112.448 8.85028C112.867 9.2693 113.077 9.79307 113.077 10.5263L112.972 13.7737ZM120.829 9.47881H119.571V11.9929C119.571 12.6214 119.781 12.9357 120.2 12.9357L120.724 12.8309V13.669L119.781 13.7737C119.362 13.7737 118.943 13.669 118.733 13.3547C118.524 13.0404 118.314 12.6214 118.314 11.9929V9.47881H117.581V8.64078H118.314V7.59324L119.467 7.27898V8.53602H120.724L120.829 9.47881ZM126.904 13.7737H125.752V10.8406C125.752 9.89782 125.438 9.47881 124.704 9.47881C124.181 9.47881 123.762 9.79307 123.552 10.3168L123.447 10.7359V13.8785H122.295V6.23144H123.447V9.37405C123.762 8.85028 124.285 8.53602 125.019 8.53602C125.542 8.53602 125.857 8.64078 126.171 8.95504C126.59 9.37405 126.8 9.89782 126.8 10.7359L126.904 13.7737ZM133.294 10.9454V11.4691H129.837C129.837 11.9929 130.047 12.4119 130.361 12.6214C130.675 12.8309 130.99 12.9357 131.513 12.9357L132.875 12.7262L133.085 13.5642C132.561 13.7737 132.037 13.8785 131.304 13.8785C130.466 13.8785 129.837 13.669 129.418 13.1452C128.999 12.6214 128.685 11.9929 128.685 11.2596C128.685 10.5263 128.895 9.79307 129.314 9.2693C129.733 8.74553 130.361 8.43127 131.094 8.43127C131.828 8.43127 132.456 8.74553 132.77 9.2693C133.085 9.79307 133.294 10.3168 133.294 10.9454ZM132.142 10.6311L131.932 9.79307C131.723 9.47881 131.409 9.2693 130.99 9.2693C130.571 9.2693 130.256 9.37405 130.047 9.68831C129.837 9.89782 129.733 10.2121 129.733 10.6311H132.142Z" fill="white"/>
</svg>
